<mxfile host="app.diagrams.net" modified="2020-08-09T19:49:09.765Z" agent="5.0 (Windows NT 10.0; Win64; x64) AppleWebKit/537.36 (KHTML, like Gecko) Chrome/84.0.4147.105 Safari/537.36" etag="rcjgRrhrgokcYX6OTKNO" version="13.6.2" type="github">
  <diagram id="0PCpyRoaQgQhWhD5Cck1" name="Page-1">
    <mxGraphModel dx="1117" dy="1014" grid="1" gridSize="10" guides="1" tooltips="1" connect="1" arrows="1" fold="1" page="1" pageScale="1" pageWidth="850" pageHeight="1100" math="0" shadow="0">
      <root>
        <mxCell id="0" />
        <mxCell id="1" parent="0" />
        <mxCell id="zwM1i99S7_MUdJsIONla-5" value="&lt;span&gt;Just learning enough to complete a task&lt;/span&gt;" style="rounded=1;whiteSpace=wrap;html=1;" vertex="1" parent="1">
          <mxGeometry x="60" y="50" width="120" height="60" as="geometry" />
        </mxCell>
      </root>
    </mxGraphModel>
  </diagram>
</mxfile>
